<?xml version="1.0" encoding="UTF-8" ?>
<!DOCTYPE svg PUBLIC "-//W3C//DTD SVG 1.1//EN" "http://www.w3.org/Graphics/SVG/1.1/DTD/svg11.dtd">
<svg width="386pt" height="338pt" viewBox="0 0 386 338" version="1.1" xmlns="http://www.w3.org/2000/svg">
    <path fill="#ffffff" opacity="1.00"
          d=" M 46.61 0.00 L 341.39 0.00 C 349.11 0.63 357.91 -0.11 364.96 3.97 C 366.23 4.68 367.56 5.29 368.93 5.79 C 369.19 6.13 369.72 6.80 369.98 7.14 C 371.12 7.57 372.15 8.21 373.00 9.11 C 374.38 10.34 375.69 11.66 376.97 12.99 C 379.36 15.67 380.82 18.99 382.68 22.02 L 382.19 23.21 C 382.51 23.25 383.14 23.32 383.46 23.36 C 386.69 33.44 384.83 44.04 386.00 54.43 L 386.00 293.38 C 386.06 300.55 385.42 307.78 383.41 314.68 L 382.71 314.66 C 382.30 316.88 381.00 318.76 380.23 320.85 C 379.88 321.15 379.19 321.74 378.85 322.04 C 378.40 323.15 377.80 324.18 376.93 325.01 C 375.66 326.36 374.37 327.69 372.97 328.92 C 371.55 330.01 370.14 331.09 368.72 332.18 C 366.55 333.19 364.40 334.24 362.30 335.38 C 355.05 338.12 346.96 337.38 339.46 338.00 L 42.75 338.00 C 36.89 337.57 30.80 337.67 25.14 335.83 C 22.28 335.03 19.91 333.11 17.08 332.23 C 16.81 331.88 16.26 331.19 15.98 330.85 C 14.89 330.39 13.88 329.79 13.03 328.98 C 11.04 326.69 8.14 325.03 7.16 322.01 C 6.81 321.71 6.12 321.13 5.77 320.83 C 5.02 318.74 3.65 316.88 3.32 314.66 L 2.58 314.69 C -0.18 306.25 0.69 297.30 0.00 288.56 L 0.00 44.60 C -0.20 37.39 0.65 30.23 2.58 23.32 L 3.36 23.38 C 3.50 21.13 4.95 19.32 5.87 17.35 C 6.89 15.87 7.90 14.38 9.05 13.00 C 10.30 11.63 11.62 10.32 13.02 9.11 C 13.70 8.00 14.86 7.54 16.03 7.16 C 16.30 6.81 16.84 6.11 17.11 5.76 C 19.41 4.96 21.54 3.76 23.69 2.61 C 30.97 -0.16 39.03 0.64 46.61 0.00 M 41.74 38.53 C 41.29 40.10 40.07 41.26 38.55 41.78 C 37.82 44.47 37.15 47.17 37.48 50.00 C 37.85 56.06 36.50 62.36 38.60 68.19 C 40.08 68.55 40.75 69.50 40.60 71.04 L 41.81 69.96 L 41.39 71.47 C 43.65 71.60 45.74 72.69 48.04 72.50 C 56.67 72.46 65.31 72.46 73.95 72.50 C 76.12 72.65 78.14 71.76 80.26 71.47 C 80.69 69.89 81.94 68.75 83.45 68.22 C 83.79 66.13 84.85 64.17 84.55 61.99 C 84.18 55.12 85.38 48.08 83.45 41.41 L 81.99 41.79 L 83.13 40.15 L 81.18 40.89 L 81.83 38.87 L 80.19 39.99 L 80.58 38.56 C 78.67 38.48 76.94 37.42 75.02 37.47 C 65.64 37.48 56.27 37.47 46.90 37.47 C 45.11 37.42 43.50 38.36 41.74 38.53 M 125.39 38.54 L 125.81 40.04 L 124.60 38.98 C 124.75 40.52 124.08 41.46 122.59 41.80 C 120.58 48.33 121.91 55.26 121.51 61.97 C 121.86 63.53 120.74 66.19 122.87 66.76 C 122.66 67.18 122.23 68.03 122.02 68.45 L 123.86 68.14 L 123.04 69.39 C 124.52 69.28 125.43 69.96 125.79 71.43 C 127.84 71.81 129.84 72.62 131.97 72.49 C 201.00 72.44 270.04 72.50 339.08 72.46 C 340.98 72.42 342.73 71.53 344.64 71.47 L 344.15 70.02 L 345.38 70.96 C 345.28 69.42 345.96 68.51 347.43 68.21 C 347.82 66.14 348.83 64.19 348.55 62.02 C 348.18 55.16 349.39 48.12 347.46 41.45 L 346.11 41.70 L 346.87 40.01 L 344.98 40.99 L 346.00 39.05 L 344.32 39.95 L 344.55 38.56 C 342.64 38.45 340.92 37.42 339.00 37.48 C 269.63 37.47 200.26 37.49 130.88 37.47 C 128.98 37.43 127.29 38.51 125.39 38.54 M 37.33 103.32 C 37.68 140.55 37.37 177.79 37.49 215.02 C 37.60 242.63 37.21 270.26 37.69 297.86 C 38.54 298.57 39.27 299.39 39.86 300.34 C 40.87 300.44 41.88 300.50 42.89 300.52 C 143.26 300.51 243.63 300.54 343.99 300.51 C 345.24 300.53 346.32 299.88 347.46 299.46 C 349.19 296.23 348.36 292.49 348.50 289.00 C 348.65 227.11 348.30 165.21 348.68 103.32 C 345.77 103.51 342.86 103.50 339.95 103.49 C 282.30 103.47 224.65 103.47 167.00 103.49 C 123.78 103.36 80.55 103.70 37.33 103.32 Z"/>
</svg>
